<svg xmlns="http://www.w3.org/2000/svg" width="32" height="32" viewBox="0 0 32 32" fill="none">
  <path d="M14.9818 10.5531C15.307 9.6776 16.5977 9.6776 16.923 10.5531C17.1498 11.1638 17.9178 11.4032 18.4755 11.0371C19.275 10.5121 20.3192 11.2399 20.0459 12.1316C19.8553 12.7536 20.3299 13.3803 21.0054 13.3986C21.9739 13.4247 22.3727 14.6023 21.6053 15.1696C21.0699 15.5653 21.0699 16.3399 21.6053 16.7356C22.3727 17.3029 21.9739 18.4805 21.0054 18.5067C20.3299 18.525 19.8553 19.1516 20.0459 19.7736C20.3192 20.6653 19.275 21.3931 18.4755 20.8682C17.9178 20.5021 17.1498 20.7414 16.923 21.3521C16.5977 22.2277 15.307 22.2277 14.9818 21.3521C14.7549 20.7414 13.987 20.5021 13.4293 20.8682C12.6297 21.3931 11.5855 20.6653 11.8589 19.7736C12.0495 19.1516 11.5749 18.525 10.8994 18.5067C9.93088 18.4805 9.53203 17.3029 10.2995 16.7356C10.8348 16.3399 10.8348 15.5653 10.2995 15.1696C9.53203 14.6023 9.93088 13.4247 10.8994 13.3986C11.5749 13.3803 12.0495 12.7536 11.8589 12.1316C11.5855 11.2399 12.6297 10.5121 13.4293 11.0371C13.987 11.4032 14.7549 11.1638 14.9818 10.5531Z" fill="url(#paint0_linear_988_18867)"/>
  <g filter="url(#filter0_n_988_18867)">
    <path d="M14.5178 7.9707C14.9986 6.67643 16.9066 6.67643 17.3873 7.9707C17.7227 8.87345 18.8579 9.2273 19.6823 8.68606C20.8643 7.91008 22.4079 8.98595 22.0039 10.3041C21.722 11.2236 22.4236 12.15 23.4222 12.177C24.8539 12.2157 25.4435 13.9565 24.309 14.7951C23.5176 15.38 23.5176 16.5251 24.309 17.11C25.4435 17.9487 24.8539 19.6894 23.4222 19.7281C22.4236 19.7552 21.722 20.6815 22.0039 21.601C22.4079 22.9192 20.8643 23.995 19.6823 23.2191C18.8579 22.6778 17.7227 23.0317 17.3873 23.9344C16.9066 25.2287 14.9986 25.2287 14.5178 23.9344C14.1824 23.0317 13.0472 22.6778 12.2228 23.2191C11.0408 23.995 9.49723 22.9192 9.90127 21.601C10.1831 20.6815 9.48148 19.7552 8.48288 19.7281C7.0512 19.6894 6.4616 17.9487 7.59614 17.11C8.38748 16.5251 8.38748 15.38 7.59614 14.7951C6.4616 13.9565 7.0512 12.2157 8.48288 12.177C9.48148 12.15 10.1831 11.2236 9.90127 10.3041C9.49723 8.98595 11.0408 7.91008 12.2228 8.68606C13.0472 9.2273 14.1824 8.87345 14.5178 7.9707Z" fill="#0091FF" fill-opacity="0.4"/>
  </g>
  <mask id="mask0_988_18867" style="mask-type:alpha" maskUnits="userSpaceOnUse" x="7" y="7" width="18" height="18">
    <path d="M14.5178 7.97076C14.9986 6.6765 16.9066 6.6765 17.3873 7.97076C17.7227 8.87351 18.8579 9.22736 19.6823 8.68612C20.8643 7.91015 22.4079 8.98601 22.0039 10.3042C21.722 11.2236 22.4236 12.15 23.4222 12.177C24.8539 12.2157 25.4435 13.9565 24.309 14.7951C23.5176 15.3801 23.5176 16.5252 24.309 17.1101C25.4435 17.9487 24.8539 19.6895 23.4222 19.7282C22.4236 19.7552 21.722 20.6816 22.0039 21.601C22.4079 22.9192 20.8643 23.9951 19.6823 23.2191C18.8579 22.6779 17.7227 23.0317 17.3873 23.9345C16.9066 25.2288 14.9986 25.2288 14.5178 23.9345C14.1824 23.0317 13.0472 22.6779 12.2228 23.2191C11.0408 23.9951 9.49723 22.9192 9.90127 21.601C10.1831 20.6816 9.48148 19.7552 8.48288 19.7282C7.0512 19.6895 6.4616 17.9487 7.59614 17.1101C8.38748 16.5252 8.38748 15.3801 7.59614 14.7951C6.4616 13.9565 7.0512 12.2157 8.48288 12.177C9.48148 12.15 10.1831 11.2236 9.90127 10.3042C9.49723 8.98601 11.0408 7.91015 12.2228 8.68612C13.0472 9.22736 14.1824 8.87351 14.5178 7.97076Z" fill="url(#paint1_radial_988_18867)" fill-opacity="0.8"/>
  </mask>
  <g mask="url(#mask0_988_18867)">
    <g filter="url(#filter1_f_988_18867)" style="mix-blend-mode:hard-light">
      <circle cx="11.8054" cy="12.8591" r="4.2788" fill="#C7FFF1"/>
    </g>
  </g>
  <defs>
    <filter id="filter0_n_988_18867" x="4.36689" y="4.36689" width="23.1714" height="23.1714" filterUnits="userSpaceOnUse" color-interpolation-filters="sRGB">
      <feFlood flood-opacity="0" result="BackgroundImageFix"/>
      <feBlend mode="normal" in="SourceGraphic" in2="BackgroundImageFix" result="shape"/>
      <feTurbulence type="fractalNoise" baseFrequency="6.9050827026367188 6.9050827026367188" stitchTiles="stitch" numOctaves="3" result="noise" seed="3635"/>
      <feColorMatrix in="noise" type="luminanceToAlpha" result="alphaNoise"/>
      <feComponentTransfer in="alphaNoise" result="coloredNoise1">
        <feFuncA type="discrete" tableValues="0 0 0 0 0 0 0 0 0 0 0 0 0 0 0 0 1 1 1 1 1 1 1 1 1 1 1 1 1 1 1 1 1 1 0 0 0 0 0 0 0 0 0 0 0 0 0 0 0 0 0 0 0 0 0 0 0 0 0 0 0 0 0 0 0 0 0 0 0 0 0 0 0 0 0 0 0 0 0 0 0 0 0 0 0 0 0 0 0 0 0 0 0 0 0 0 0 0 0 0 "/>
      </feComponentTransfer>
      <feComposite operator="in" in2="shape" in="coloredNoise1" result="noise1Clipped"/>
      <feFlood flood-color="rgba(255, 255, 255, 0.2)" result="color1Flood"/>
      <feComposite operator="in" in2="noise1Clipped" in="color1Flood" result="color1"/>
      <feMerge result="effect1_noise_988_18867">
        <feMergeNode in="shape"/>
        <feMergeNode in="color1"/>
      </feMerge>
    </filter>
    <filter id="filter1_f_988_18867" x="0.943846" y="1.99756" width="21.7231" height="21.7231" filterUnits="userSpaceOnUse" color-interpolation-filters="sRGB">
      <feFlood flood-opacity="0" result="BackgroundImageFix"/>
      <feBlend mode="normal" in="SourceGraphic" in2="BackgroundImageFix" result="shape"/>
      <feGaussianBlur stdDeviation="3.29138" result="effect1_foregroundBlur_988_18867"/>
    </filter>
    <linearGradient id="paint0_linear_988_18867" x1="11.9369" y1="12.0688" x2="21.0869" y2="22.0088" gradientUnits="userSpaceOnUse">
      <stop offset="0.304596" stop-color="#B996FF"/>
      <stop offset="1" stop-color="#2CB9FF"/>
    </linearGradient>
    <radialGradient id="paint1_radial_988_18867" cx="0" cy="0" r="1" gradientUnits="userSpaceOnUse" gradientTransform="translate(13.4511 12.7271) rotate(59.9558) scale(14.0683 16.2148)">
      <stop offset="0.252323" stop-color="#C863FF"/>
      <stop offset="1" stop-color="#00E5FF"/>
    </radialGradient>
  </defs>
</svg>
